<svg xmlns="http://www.w3.org/2000/svg" viewBox="0 0 528 100" width="739.2" height="140"><rect width="528" height="100" fill="white"/><rect x="0" y="0" width="100" height="100" fill="white" stroke="#888" stroke-width="1.2"/><circle cx="36.56" cy="36.56" r="8.5" fill="white" stroke="black" stroke-width="2.5"/><polygon points="63.44,74.44 72.94,55.94 53.94,55.94" fill="black" stroke="black" stroke-width="2.5" stroke-linejoin="round" stroke-linecap="round"/><polygon points="27.37,83.63 36.87,65.13 17.87,65.13" fill="black" stroke="black" stroke-width="2.5" stroke-linejoin="round" stroke-linecap="round"/><circle cx="119" cy="40" r="3.5" fill="black"/><circle cx="119" cy="60" r="3.5" fill="black"/><rect x="138" y="0" width="100" height="100" fill="white" stroke="#888" stroke-width="1.2"/><circle cx="201.44" cy="36.56" r="8.5" fill="white" stroke="black" stroke-width="2.5"/><polygon points="174.56,74.44 165.06,55.94 184.06,55.94" fill="black" stroke="black" stroke-width="2.5" stroke-linejoin="round" stroke-linecap="round"/><polygon points="210.63,83.63 201.13,65.13 220.13,65.13" fill="black" stroke="black" stroke-width="2.5" stroke-linejoin="round" stroke-linecap="round"/><circle cx="257" cy="40" r="3.5" fill="black"/><circle cx="257" cy="60" r="3.5" fill="black"/><circle cx="271" cy="40" r="3.5" fill="black"/><circle cx="271" cy="60" r="3.5" fill="black"/><rect x="290" y="0" width="100" height="100" fill="white" stroke="#888" stroke-width="1.2"/><polygon points="306.37,72.63 324.87,82.13 324.87,63.13" fill="black" stroke="black" stroke-width="2.5" stroke-linejoin="round" stroke-linecap="round"/><polygon points="332,61 348,61 348,77 332,77" fill="#9a9a9a" stroke="black" stroke-width="2.5" stroke-linejoin="round" stroke-linecap="round"/><polygon points="362.63,83.63 372.13,65.13 353.13,65.13" fill="black" stroke="black" stroke-width="2.5" stroke-linejoin="round" stroke-linecap="round"/><circle cx="409" cy="40" r="3.5" fill="black"/><circle cx="409" cy="60" r="3.5" fill="black"/><rect x="428" y="0" width="100" height="100" fill="white" stroke="#888" stroke-width="1.2"/><text x="478" y="65" font-family="Arial, Helvetica, sans-serif" font-size="44" font-weight="bold" text-anchor="middle" fill="black">?</text></svg>